<svg width="18" height="18" viewBox="0 0 18 18" fill="none" xmlns="http://www.w3.org/2000/svg">
    <path
        d="M9 15.2123C12.5346 15.2123 15.4 12.3469 15.4 8.81226M9 15.2123C5.46538 15.2123 2.6 12.3469 2.6 8.81226M9 15.2123V16.8123M15.4 8.81226C15.4 5.27763 12.5346 2.41226 9 2.41226M15.4 8.81226H17M9 2.41226C5.46538 2.41226 2.6 5.27763 2.6 8.81226M9 2.41226V0.812256M2.6 8.81226H1M9.8 8.81226C9.8 9.25408 9.44183 9.61226 9 9.61226C8.55817 9.61226 8.2 9.25408 8.2 8.81226C8.2 8.37043 8.55817 8.01226 9 8.01226C9.44183 8.01226 9.8 8.37043 9.8 8.81226Z"
        stroke="#061334" stroke-width="1.4" stroke-linecap="round" stroke-linejoin="round" />
</svg>
    