<svg width="168" height="40" viewBox="0 0 168 40" fill="none" xmlns="http://www.w3.org/2000/svg">
<path d="M129.711 34.7295L161.58 34.7295" stroke="#9966CC" stroke-width="1.8"/>
<path d="M158.251 12.9998C160.33 12.9998 162.614 13.9329 163.909 15.2993V13.4663H168V36.3286H163.909V28.2968C162.614 29.6632 160.33 30.5964 158.251 30.5964C152.865 30.5964 149.252 27.0637 149.252 21.7981C149.252 16.5324 152.865 12.9998 158.251 12.9998ZM158.66 16.5324C155.456 16.5324 153.342 18.632 153.342 21.7981C153.342 24.9641 155.456 27.0637 158.66 27.0637C161.796 27.0637 163.909 24.9641 163.909 21.7981C163.909 18.632 161.796 16.5324 158.66 16.5324Z" fill="#00142E"/>
<path d="M142.71 10.934V7.26807H146.8V10.934H142.71ZM142.71 30.1304V13.4669H146.8V30.1304H142.71Z" fill="#00142E"/>
<path d="M136.634 30.5969C133.226 30.5969 130.976 28.6973 130.976 25.8645V16.7996H128.249V13.4669H130.976V7.26807H135.066V13.4669H139.361V16.7996H135.066V25.8645C135.066 26.6977 135.68 27.2642 136.566 27.2642H139.532V30.1304C138.918 30.397 137.759 30.5969 136.634 30.5969Z" fill="#00142E"/>
<path d="M116.467 30.4633C111.49 30.4633 108.149 26.9973 108.149 21.7983C108.149 16.5993 111.49 13.1333 116.467 13.1333C118.785 13.1333 121.205 14.3997 122.534 16.266V13.4666H125.261V30.13H122.534V27.3306C121.205 29.1969 118.785 30.4633 116.467 30.4633ZM116.739 28.1304C120.216 28.1304 122.534 25.5976 122.534 21.7983C122.534 17.999 120.216 15.4662 116.739 15.4662C113.228 15.4662 110.876 17.999 110.876 21.7983C110.876 25.5976 113.228 28.1304 116.739 28.1304Z" fill="#00142E"/>
<path d="M98.6152 30.13V13.4666H101.342V15.7661C102.74 13.9665 104.308 13.1333 106.217 13.1333C106.728 13.1333 107.273 13.2666 107.614 13.4666V15.4662H106.455C103.387 15.4662 101.342 17.4325 101.342 20.3986V30.13H98.6152Z" fill="#00142E"/>
<path d="M80.9385 30.1304V7.26807H83.6654V20.6988L91.0283 13.4669H94.846L87.7218 20.3656L95.7664 30.1304H92.2895L85.7788 22.2319L83.6654 24.2648V30.1304H80.9385Z" fill="#00142E"/>
<path d="M69.4357 30.4633C64.2886 30.4633 60.8799 26.9973 60.8799 21.7983C60.8799 16.5993 64.2886 13.1333 69.4357 13.1333C74.5829 13.1333 77.9916 16.5993 77.9916 21.7983C77.9916 26.9973 74.5829 30.4633 69.4357 30.4633ZM69.4357 28.1304C72.9467 28.1304 75.2646 25.5976 75.2646 21.7983C75.2646 17.999 72.9467 15.4662 69.4357 15.4662C65.9248 15.4662 63.6068 17.999 63.6068 21.7983C63.6068 25.5976 65.9248 28.1304 69.4357 28.1304Z" fill="#00142E"/>
<path d="M49.069 30.4632C42.9674 30.4632 38.877 27.1971 38.877 22.2647H41.7744C41.7744 25.5974 44.7058 27.797 49.069 27.797C53.0231 27.797 55.6819 26.1307 55.6819 23.6311C55.6819 21.7981 53.7389 20.665 48.7622 19.5319C42.797 18.1655 40.479 16.4325 40.479 13.3331C40.479 9.5005 43.9218 6.93433 49.069 6.93433C53.4662 6.93433 57.0454 9.56716 58.0339 13.4997L55.2388 14.1663C54.6252 11.4335 52.1368 9.60048 49.069 9.60048C45.7625 9.60048 43.5469 11.1002 43.5469 13.3331C43.5469 14.8661 45.1831 15.8326 49.3758 16.7658C56.125 18.3321 58.7497 20.2651 58.7497 23.6311C58.7497 27.7303 54.8638 30.4632 49.069 30.4632Z" fill="#00142E"/>
<mask id="mask0_57_1350" style="mask-type:alpha" maskUnits="userSpaceOnUse" x="0" y="0" width="27" height="41">
<path fill-rule="evenodd" clip-rule="evenodd" d="M9.96333 0.0268775C9.89987 -0.00983153 9.82141 -0.0088767 9.75886 0.0293659L0.0956736 5.93748C0.0362434 5.97381 0 6.03845 0 6.10811V23.9698C0 24.0395 0.0362434 24.1041 0.0956736 24.1404L9.75735 30.0476C9.82069 30.0864 9.90028 30.0868 9.96406 30.0488L18.1725 25.1568C18.3021 25.0795 18.3027 24.892 18.1736 24.8138L2.17601 15.1347C2.04739 15.0569 2.04739 14.8703 2.17601 14.7925L18.1694 5.11594C18.2995 5.03722 18.2976 4.84784 18.166 4.7717L9.96333 0.0268775ZM16.5387 39.9744C16.6021 40.0111 16.6805 40.0101 16.7431 39.9719L26.4062 34.0671C26.4657 34.0307 26.502 33.9661 26.502 33.8964L26.502 16.0447C26.502 15.9751 26.4657 15.9104 26.4062 15.8741L16.7446 9.97014C16.6812 9.93144 16.6017 9.93099 16.5379 9.96897L8.32968 14.8582C8.19998 14.9355 8.19936 15.1231 8.32854 15.2012L24.3257 24.8747C24.4544 24.9526 24.4544 25.1392 24.3257 25.217L8.33279 34.888C8.20263 34.9667 8.20449 35.1562 8.33618 35.2323L16.5387 39.9744Z" fill="#CB98FF"/>
</mask>
<g mask="url(#mask0_57_1350)">
<path d="M0.0951459 5.92444L9.75834 -0.024844C9.82115 -0.0635098 9.90013 -0.0644744 9.96386 -0.0273536L18.1685 4.75169C18.2994 4.82796 18.3013 5.01647 18.1719 5.09531L2.17353 14.8423C2.04561 14.9203 2.04561 15.106 2.17353 15.1839L18.1761 24.9335C18.3045 25.0118 18.3039 25.1984 18.175 25.2758L9.96459 30.2031C9.90055 30.2416 9.82043 30.2411 9.75683 30.2019L0.095146 24.2536C0.0360162 24.2172 0 24.1527 0 24.0833V6.09475C0 6.02531 0.036016 5.96085 0.0951459 5.92444Z" fill="url(#paint0_linear_57_1350)"/>
<path d="M17.5663 25.0023L0.189771 24.1124C0.0834289 24.1069 0 24.0191 0 23.9126V14.2855C0 14.1297 0.170267 14.0337 0.303558 14.1144L17.6801 24.6314C17.8579 24.7391 17.7739 25.0129 17.5663 25.0023Z" fill="url(#paint1_linear_57_1350)"/>
<path d="M17.5663 25.0023L0.189771 24.1124C0.0834289 24.1069 0 24.0191 0 23.9126V14.2855C0 14.1297 0.170267 14.0337 0.303558 14.1144L17.6801 24.6314C17.8579 24.7391 17.7739 25.0129 17.5663 25.0023Z" fill="black" fill-opacity="0.2"/>
<path d="M0.304357 15.9672L18.1607 5.04551C18.29 4.96639 18.2877 4.77773 18.1565 4.70178L9.98265 -0.0279134C9.91905 -0.0647123 9.8404 -0.0636778 9.77779 -0.0252188L0.0953137 5.9228C0.0360884 5.95918 0 6.0237 0 6.09321V15.7966C0 15.9528 0.171088 16.0487 0.304357 15.9672Z" fill="url(#paint2_linear_57_1350)"/>
<path d="M26.4068 34.1683L16.7436 40.1176C16.6808 40.1563 16.6018 40.1572 16.5381 40.1201L8.33344 35.3411C8.20251 35.2648 8.20064 35.0763 8.33005 34.9975L24.3284 25.2504C24.4563 25.1725 24.4563 24.9868 24.3284 24.9088L8.32583 15.1592C8.19741 15.081 8.19803 14.8943 8.32697 14.817L16.5374 9.88965C16.6014 9.85121 16.6815 9.85167 16.7451 9.89083L26.4068 15.8392C26.4659 15.8756 26.502 15.94 26.502 16.0095L26.502 33.998C26.502 34.0675 26.4659 34.1319 26.4068 34.1683Z" fill="#B08AF4"/>
<path d="M8.93563 15.0912L26.3122 15.9811C26.4185 15.9866 26.502 16.0744 26.502 16.1809L26.502 25.808C26.502 25.9638 26.3317 26.0598 26.1984 25.9791L8.82184 15.4621C8.64401 15.3545 8.72803 15.0806 8.93563 15.0912Z" fill="url(#paint3_linear_57_1350)"/>
<path d="M8.93563 15.0912L26.3122 15.9811C26.4185 15.9866 26.502 16.0744 26.502 16.1809L26.502 25.808C26.502 25.9638 26.3317 26.0598 26.1984 25.9791L8.82184 15.4621C8.64401 15.3545 8.72803 15.0806 8.93563 15.0912Z" fill="black" fill-opacity="0.2"/>
<path d="M26.1976 24.1261L8.34129 35.0478C8.21193 35.1269 8.21423 35.3155 8.34548 35.3915L16.5193 40.1212C16.5829 40.158 16.6616 40.1569 16.7242 40.1185L26.4066 34.1705C26.4659 34.1341 26.502 34.0696 26.502 34.0001L26.502 24.2967C26.502 24.1405 26.3309 24.0446 26.1976 24.1261Z" fill="url(#paint4_linear_57_1350)"/>
<path d="M26.1976 24.1261L8.34129 35.0478C8.21193 35.1269 8.21423 35.3155 8.34548 35.3915L16.5193 40.1212C16.5829 40.158 16.6616 40.1569 16.7242 40.1185L26.4066 34.1705C26.4659 34.1341 26.502 34.0696 26.502 34.0001L26.502 24.2967C26.502 24.1405 26.3309 24.0446 26.1976 24.1261Z" fill="black" fill-opacity="0.2"/>
<path d="M9.77742 0.0800205L0.423972 15.4564C0.315257 15.6351 0.519213 15.8396 0.698262 15.7315L18.2463 5.1299C18.3763 5.05138 18.3748 4.86236 18.2436 4.78591L10.049 0.0111547C9.95482 -0.0437115 9.83406 -0.0130879 9.77742 0.0800205Z" fill="url(#paint5_linear_57_1350)"/>
<path d="M9.77742 0.0800205L0.423972 15.4564C0.315257 15.6351 0.519213 15.8396 0.698262 15.7315L18.2463 5.1299C18.3763 5.05138 18.3748 4.86236 18.2436 4.78591L10.049 0.0111547C9.95482 -0.0437115 9.83406 -0.0130879 9.77742 0.0800205Z" fill="black" fill-opacity="0.2"/>
<path d="M16.7137 40.0064L26.0648 24.634C26.1737 24.4549 25.9689 24.2502 25.7899 24.3592L8.24627 35.039C8.11626 35.1182 8.11879 35.3077 8.25086 35.3834L16.4434 40.076C16.5375 40.1299 16.6573 40.099 16.7137 40.0064Z" fill="url(#paint6_linear_57_1350)"/>
</g>
<defs>
<linearGradient id="paint0_linear_57_1350" x1="8.56799" y1="14.0164" x2="9.20017" y2="30.2668" gradientUnits="userSpaceOnUse">
<stop stop-color="#D3A7FF"/>
<stop offset="1" stop-color="#A37FF0"/>
</linearGradient>
<linearGradient id="paint1_linear_57_1350" x1="0.524571" y1="15.5548" x2="8.96314" y2="25.232" gradientUnits="userSpaceOnUse">
<stop stop-color="#784CD6"/>
<stop offset="1" stop-color="#9169E7"/>
</linearGradient>
<linearGradient id="paint2_linear_57_1350" x1="9.2237" y1="-0.0876465" x2="9.2237" y2="16.1533" gradientUnits="userSpaceOnUse">
<stop stop-color="#B08AF4"/>
<stop offset="1" stop-color="#C5A3FF"/>
</linearGradient>
<linearGradient id="paint3_linear_57_1350" x1="17.322" y1="15.0506" x2="21.005" y2="26.29" gradientUnits="userSpaceOnUse">
<stop stop-color="#9169E7"/>
<stop offset="1" stop-color="#A885F2"/>
</linearGradient>
<linearGradient id="paint4_linear_57_1350" x1="17.2782" y1="23.9399" x2="17.2783" y2="40.1809" gradientUnits="userSpaceOnUse">
<stop stop-color="#764AD4"/>
<stop offset="1" stop-color="#895CE7"/>
</linearGradient>
<linearGradient id="paint5_linear_57_1350" x1="10.2291" y1="-0.0876466" x2="9.30969" y2="16.1557" gradientUnits="userSpaceOnUse">
<stop stop-color="#926AE7"/>
<stop offset="1" stop-color="#B08AF4"/>
</linearGradient>
<linearGradient id="paint6_linear_57_1350" x1="17.2244" y1="23.9319" x2="17.2244" y2="40.1729" gradientUnits="userSpaceOnUse">
<stop stop-color="#8D64E5"/>
<stop offset="1" stop-color="#AD8CF5"/>
</linearGradient>
</defs>
</svg>
