<svg width="18" height="9" viewBox="0 0 18 9" fill="none" xmlns="http://www.w3.org/2000/svg">
    <path
        d="M17.8674 4.71715L14.2007 8.27747C14.0238 8.44918 13.7371 8.44918 13.5603 8.27747L13.1326 7.86221C12.9561 7.69079 12.9557 7.41297 13.1319 7.24115L16.0378 4.40624L13.1319 1.57135C12.9557 1.39953 12.9561 1.12171 13.1326 0.950288L13.5603 0.535033C13.7371 0.363322 14.0238 0.363322 14.2007 0.535034L17.8674 4.09535C18.0442 4.26705 18.0442 4.54543 17.8674 4.71715Z"
        fill="#061334" />
    <path
        d="M0.132615 4.09535L3.79934 0.535033C3.97618 0.363322 4.26289 0.363322 4.43971 0.535033L4.86737 0.950288C5.04391 1.12171 5.04425 1.39953 4.86813 1.57135L1.96219 4.40626L4.86813 7.24115C5.04425 7.41297 5.04391 7.69079 4.86737 7.86221L4.43971 8.27747C4.26287 8.44918 3.97616 8.44918 3.79934 8.27747L0.132634 4.71715C-0.0442082 4.54545 -0.0442082 4.26707 0.132615 4.09535Z"
        fill="#061334" />
</svg>
    