<svg width="16" height="16" viewBox="0 0 16 16" fill="none" xmlns="http://www.w3.org/2000/svg">
    <g clip-path="url(#clip0_282_4156)">
        <path
            d="M14 15.9922H12V12.6589C12 12.3053 11.8595 11.9661 11.6095 11.7161C11.3594 11.466 11.0203 11.3256 10.6667 11.3256H5.33333C4.97971 11.3256 4.64057 11.466 4.39052 11.7161C4.14048 11.9661 4 12.3053 4 12.6589V15.9922H2V12.6589C2.00106 11.7752 2.35259 10.9279 2.97748 10.303C3.60237 9.67815 4.4496 9.32662 5.33333 9.32556H10.6667C11.5504 9.32662 12.3976 9.67815 13.0225 10.303C13.6474 10.9279 13.9989 11.7752 14 12.6589V15.9922Z"
            fill="white" />
        <path
            d="M8 7.99225C7.20888 7.99225 6.43552 7.75765 5.77772 7.31813C5.11992 6.8786 4.60723 6.25389 4.30448 5.52298C4.00173 4.79208 3.92252 3.98781 4.07686 3.21189C4.2312 2.43597 4.61216 1.72323 5.17157 1.16382C5.73098 0.604413 6.44372 0.22345 7.21964 0.0691092C7.99556 -0.0852317 8.79983 -0.00601832 9.53074 0.296732C10.2616 0.599483 10.8864 1.11217 11.3259 1.76997C11.7654 2.42777 12 3.20113 12 3.99225C11.9989 5.05279 11.5772 6.06959 10.8273 6.81951C10.0773 7.56942 9.06054 7.99119 8 7.99225ZM8 1.99225C7.60444 1.99225 7.21776 2.10955 6.88886 2.32931C6.55996 2.54907 6.30362 2.86143 6.15224 3.22688C6.00087 3.59234 5.96126 3.99447 6.03843 4.38243C6.1156 4.77039 6.30608 5.12676 6.58579 5.40646C6.86549 5.68617 7.22186 5.87665 7.60982 5.95382C7.99778 6.03099 8.39992 5.99138 8.76537 5.84001C9.13082 5.68863 9.44318 5.43229 9.66294 5.10339C9.8827 4.77449 10 4.38781 10 3.99225C10 3.46182 9.78929 2.95311 9.41422 2.57804C9.03914 2.20296 8.53044 1.99225 8 1.99225Z"
            fill="white" />
    </g>
    <defs>
        <clipPath id="clip0_282_4156">
            <rect width="16" height="16" fill="white" transform="translate(0 -0.00775146)" />
        </clipPath>
    </defs>
</svg>
